<svg xmlns="http://www.w3.org/2000/svg" viewBox="0 0 760 180" role="img" aria-labelledby="title desc">
  <title id="title">YICREDIT logo</title>
  <desc id="desc">YICREDIT horizontal brand logo.</desc>
  <g transform="translate(24 22) scale(0.33)">
    <path fill="#FFFFFF" fill-rule="evenodd" d="M220.0,397.5 L217.0,397.5 L216.5,395.0 L307.5,265.0 L381.5,162.0 L391.5,146.0 L331.0,145.5 L326.5,150.0 L157.0,390.5 L131.0,381.5 L108.0,369.5 L107.5,368.0 L112.5,360.0 L176.5,270.0 L177.5,266.0 L91.5,145.0 L85.5,136.0 L83.5,130.0 L145.0,129.5 L147.0,130.5 L161.5,149.0 L208.5,217.0 L212.0,219.5 L268.5,138.0 L275.0,130.5 L277.0,129.5 L321.0,129.5 L323.0,128.5 L352.5,86.0 L247.0,85.5 L244.0,86.5 L239.5,91.0 L215.5,126.0 L212.0,129.5 L210.0,129.5 L181.5,89.0 L177.0,85.5 L47.5,85.0 L56.5,72.0 L76.0,51.5 L96.0,35.5 L117.0,22.5 L139.0,12.5 L161.0,5.5 L182.0,1.5 L205.0,0.5 L206.0,0.0 L238.0,1.5 L266.0,7.5 L278.0,11.5 L294.0,18.5 L318.0,31.5 L348.0,55.5 L366.5,76.0 L372.5,84.0 L372.5,86.0 L368.5,90.0 L341.5,129.0 L344.0,130.5 L396.0,129.5 L404.5,157.0 L406.5,175.0 L407.5,176.0 L407.5,186.0 L408.5,187.0 L407.5,222.0 L406.5,223.0 L404.5,240.0 L397.5,265.0 L391.5,280.0 L380.5,301.0 L370.5,316.0 L357.5,332.0 L344.0,345.5 L327.0,359.5 L312.0,369.5 L291.0,380.5 L270.0,388.5 L251.0,393.5 L233.0,395.5 L232.0,396.5 L221.0,396.5 L220.0,397.5 Z
    M67.0,336.5 L51.5,319.0 L37.5,298.0 L24.5,271.0 L15.5,241.0 L13.5,225.0 L12.5,224.0 L12.5,215.0 L11.5,214.0 L11.5,183.0 L12.5,182.0 L12.5,174.0 L13.5,173.0 L15.5,156.0 L22.0,135.5 L45.5,167.0 L114.5,265.0 L113.5,271.0 L67.0,336.5 Z"/>
  </g>
  <text x="185" y="101" fill="#FFFFFF" font-family="Arial, Helvetica, sans-serif" font-size="72" font-weight="800" letter-spacing="1.5">YICREDIT</text>
  <path d="M187 124H607" stroke="#FFFFFF" stroke-width="5" stroke-linecap="round" opacity="0.22"/>
</svg>
